# xmcd
# 
# Track frame offsets:
#   150
#   17101
#   34375
#   51452
#   68640
#   85927
#   100948
#   115565
#   133909
#   150600
#   168547
#   187067
#   204436
#   222047
#   239430
# 
# Disc length: 3387 seconds
# 
# Revision: 1
# Processed by: cddbd v1.5.2PL0 Copyright (c) Steve Scherf et al.
# Submitted via: Synapstar 1.0 
# 
DISCID=d50d390f
DTITLE=Various Artist - SC9017
DYEAR=2007
DGENRE=Country
TTITLE0=CARRIE UNDERWOOD - ALL AMERICAN GIRL
TTITLE1=CARRIE UNDERWOOD - CRAZY DREAMS
TTITLE2=JOSH TURNER - FIRECRACKER
TTITLE3=Shelby Lynne - HOW CAN I BE SURE
TTITLE4=MARTINA MCBRIDE - HOW I FEEL
TTITLE5=BUCKY COVINGTON - IT'S GOOD TO BE US
TTITLE6=BIG and RICH - LOUD
TTITLE7=LEANN RIMES - NOTHIN' BETTER TO DO
TTITLE8=FAITH HILL - RED UMBRELLA (RADIO VERSION)
TTITLE9=CARRIE UNDERWOOD - SO SMALL
TTITLE10=CHUCK WICKS - STEALING CINDERELLA
TTITLE11=BLAKE SHELTON - THE MORE I DRINK
TTITLE12=DIXIE CHICKS - THE NEIGHBOR
TTITLE13=MONTGOMERY GENTRY - WHAT DO YA THINK ABOUT THAT
TTITLE14=CHRIS CAGLE - WHAT KINDA GONE
EXTD=MediaType: Karaoke CD+G Producer: Soundchoice
EXTT0=
EXTT1=
EXTT2=
EXTT3=
EXTT4=
EXTT5=
EXTT6=
EXTT7=
EXTT8=
EXTT9=
EXTT10=
EXTT11=
EXTT12=
EXTT13=
EXTT14=
PLAYORDER=
